#!OML:ASF G:\JayActor3\Patient Classification 1\Patient 1\Session 6\male.ASF
:FULLY-SPECIFIED
:DEGREES
1170
root -6.67292 16.0444 3.16007 359.821 -41.204 -360.092
lowerback 19.5536 -3.20881 0.317145
upperback 10.1712 -4.42432 1.12379
thorax 0.12398 -2.37283 1.84034
lowerneck 16.8599 1.45685 1.30646
upperneck -7.1371 2.42715 1.92232
head -4.87492 1.00294 0.178454
rclavicle -1.19097e-013 6.41081e-014
rhumerus -32.1091 14.2301 -87.1372
rradius 120.626
rwrist 13.2157
rhand 13.2226 -15.7714
rfingers 7.12502
rthumb 38.1761 -41.5225
lclavicle -1.19097e-013 6.41081e-014
lhumerus -39.2716 5.31965 83.4367
lradius 128.35
lwrist 8.21147
lhand 4.94632 37.3532
lfingers 7.12502
lthumb 30.3188 64.8823
rfemur -35.5986 -0.68177 21.9819
rtibia 26.9289
rfoot -22.5243 -21.2459
rtoes -7.63916
lfemur -0.646052 22.0677 -16.8575
ltibia 43.5995
lfoot -16.2918 8.68769
ltoes -25.3928
1171
root -6.77002 16.0722 3.25262 359.772 -41.8319 -359.792
lowerback 19.391 -3.05155 0.291071
upperback 10.1085 -4.22629 1.13525
thorax 0.134527 -2.27469 1.82249
lowerneck 16.7797 1.40889 1.329
upperneck -7.42715 2.37189 1.88254
head -4.95227 0.97568 0.166467
rclavicle 2.81777e-014 -7.15625e-015
rhumerus -31.899 14.2198 -87.1737
rradius 120.477
rwrist 13.4602
rhand 13.042 -15.708
rfingers 7.12502
rthumb 38.0056 -41.5057
lclavicle 2.81777e-014 -7.15625e-015
lhumerus -39.3403 5.25273 83.4826
lradius 128.372
lwrist 8.20693
lhand 4.88892 37.3455
lfingers 7.12502
lthumb 30.264 64.8847
rfemur -35.6117 -0.628184 21.9825
rtibia 27.3945
rfoot -21.8671 -20.9176
rtoes -7.73917
lfemur -0.00362918 22.2994 -16.8762
ltibia 43.0779
lfoot -15.3772 8.52069
ltoes -25.8859
1172
root -6.86804 16.0987 3.34508 359.684 -42.4411 -359.423
lowerback 19.224 -2.90658 0.227584
upperback 10.0382 -4.04983 1.11566
thorax 0.139855 -2.18743 1.79752
lowerneck 16.7302 1.35832 1.38958
upperneck -7.70964 2.32152 1.84565
head -5.03188 0.949109 0.148756
rclavicle 6.73383e-014 -5.36719e-014
rhumerus -31.728 14.2134 -87.2615
rradius 120.348
rwrist 13.7065
rhand 12.8401 -15.666
rfingers 7.12502
rthumb 37.8149 -41.5154
lclavicle 6.73383e-014 -5.36719e-014
lhumerus -39.4147 5.13984 83.4777
lradius 128.381
lwrist 8.17591
lhand 4.83964 37.3643
lfingers 7.12502
lthumb 30.217 64.9121
rfemur -35.6329 -0.516326 21.9105
rtibia 27.8869
rfoot -21.3874 -20.5554
rtoes -7.80377
lfemur 0.582167 22.5202 -16.9592
ltibia 42.6107
lfoot -14.4014 8.34962
ltoes -26.3688
1173
root -6.96702 16.1257 3.4375 359.575 -43.0005 -359.011
lowerback 19.0518 -2.78712 0.134551
upperback 9.95815 -3.91012 1.09063
thorax 0.140127 -2.11903 1.79069
lowerneck 16.7 1.31317 1.45189
upperneck -7.96801 2.27823 1.81065
head -5.10713 0.925783 0.130752
rclavicle 1.73937e-014 5.96354e-016
rhumerus -31.6017 14.2281 -87.3719
rradius 120.252
rwrist 13.9211
rhand 12.6346 -15.6445
rfingers 7.12502
rthumb 37.6207 -41.5459
lclavicle 1.73937e-014 5.96354e-016
lhumerus -39.4874 5.01928 83.4522
lradius 128.374
lwrist 8.13435
lhand 4.81108 37.3937
lfingers 7.12502
lthumb 30.1898 64.9464
rfemur -35.6495 -0.376769 21.7866
rtibia 28.372
rfoot -21.0448 -20.1476
rtoes -7.76287
lfemur 1.08585 22.7102 -17.0911
ltibia 42.2233
lfoot -13.3412 8.18884
ltoes -26.8645
1174
root -7.06749 16.1539 3.52968 359.452 -43.4907 -358.572
lowerback 18.876 -2.69232 0.0260857
upperback 9.8692 -3.80344 1.07046
thorax 0.134985 -2.06738 1.80421
lowerneck 16.6687 1.26658 1.4991
upperneck -8.18116 2.22996 1.79147
head -5.16842 0.89981 0.120815
rclavicle 1.3418e-014 2.18663e-014
rhumerus -31.5234 14.238 -87.481
rradius 120.195
rwrist 14.0769
rhand 12.4651 -15.6389
rfingers 7.12502
rthumb 37.4605 -41.5829
lclavicle 1.3418e-014 2.18663e-014
lhumerus -39.5579 4.87972 83.4264
lradius 128.355
lwrist 8.11302
lhand 4.77157 37.4298
lfingers 7.12502
lthumb 30.1521 64.9895
rfemur -35.6458 -0.212047 21.619
rtibia 28.822
rfoot -20.7832 -19.7098
rtoes -7.67191
lfemur 1.49255 22.8968 -17.2366
ltibia 41.9495
lfoot -12.1813 8.00051
ltoes -27.3798
1175
root -7.1693 16.1843 3.62147 359.331 -43.8872 -358.141
lowerback 18.7094 -2.63591 -0.0815297
upperback 9.773 -3.74489 1.06894
thorax 0.120417 -2.03984 1.84661
lowerneck 16.637 1.22779 1.53215
upperneck -8.35888 2.18792 1.77341
head -5.21873 0.877646 0.113112
rclavicle 6.6891e-014 -4.57205e-015
rhumerus -31.4934 14.2605 -87.5806
rradius 120.17
rwrist 14.2019
rhand 12.3126 -15.6182
rfingers 7.12502
rthumb 37.3164 -41.6002
lclavicle 6.6891e-014 -4.57205e-015
lhumerus -39.6302 4.76491 83.4038
lradius 128.32
lwrist 8.12301
lhand 4.74202 37.4528
lfingers 7.12502
lthumb 30.1239 65.0176
rfemur -35.5973 -0.0219431 21.4235
rtibia 29.2117
rfoot -20.5564 -19.2848
rtoes -7.56059
lfemur 1.78161 23.035 -17.3759
ltibia 41.8275
lfoot -10.9158 7.79788
ltoes -27.838
1176
root -7.27285 16.2166 3.71195 359.223 -44.1859 -357.737
lowerback 18.5539 -2.61548 -0.194539
upperback 9.677 -3.73264 1.09931
thorax 0.104875 -2.03635 1.93453
lowerneck 16.5863 1.19832 1.52998
upperneck -8.50472 2.15 1.762
head -5.25638 0.858739 0.113023
rclavicle -4.09496e-014 1.15295e-014
rhumerus -31.4926 14.303 -87.6489
rradius 120.172
rwrist 14.2865
rhand 12.1775 -15.5882
rfingers 7.12502
rthumb 37.1886 -41.6037
lclavicle -4.09496e-014 1.15295e-014
lhumerus -39.7049 4.69025 83.3925
lradius 128.278
lwrist 8.1936
lhand 4.7347 37.4464
lfingers 7.12502
lthumb 30.1169 65.0125
rfemur -35.492 0.223876 21.2042
rtibia 29.5273
rfoot -20.3526 -18.9278
rtoes -7.40938
lfemur 1.93296 23.1555 -17.4715
ltibia 41.9049
lfoot -9.54102 7.5406
ltoes -28.2076
1177
root -7.37754 16.2507 3.8006 359.154 -44.377 -357.388
lowerback 18.4203 -2.63435 -0.279596
upperback 9.57582 -3.76557 1.16002
thorax 0.0750243 -2.05482 2.04805
lowerneck 16.5228 1.16983 1.51104
upperneck -8.63763 2.10937 1.75343
head -5.2881 0.839157 0.1169
rclavicle 2.44505e-014 6.75868e-015
rhumerus -31.5253 14.3493 -87.6917
rradius 120.194
rwrist 14.324
rhand 12.0538 -15.5544
rfingers 7.12502
rthumb 37.0716 -41.6004
lclavicle 2.44505e-014 6.75868e-015
lhumerus -39.7846 4.66381 83.3792
lradius 128.222
lwrist 8.31465
lhand 4.74537 37.4031
lfingers 7.12502
lthumb 30.1271 64.9672
rfemur -35.3304 0.519936 20.979
rtibia 29.7605
rfoot -20.1553 -18.6767
rtoes -7.20728
lfemur 1.90567 23.1974 -17.5309
ltibia 42.2258
lfoot -8.05289 7.27985
ltoes -28.4421
1178
root -7.48312 16.2856 3.88672 359.139 -44.4686 -357.117
lowerback 18.315 -2.68778 -0.326202
upperback 9.47282 -3.8363 1.25246
thorax 0.0306765 -2.09135 2.18154
lowerneck 16.4506 1.13963 1.48076
upperneck -8.78514 2.06451 1.74767
head -5.32315 0.817608 0.12387
rclavicle 9.20373e-014 -4.33351e-014
rhumerus -31.5775 14.4016 -87.7054
rradius 120.234
rwrist 14.2937
rhand 11.9177 -15.5285
rfingers 7.12502
rthumb 36.9428 -41.6077
lclavicle 9.20373e-014 -4.33351e-014
lhumerus -39.8692 4.67808 83.3624
lradius 128.16
lwrist 8.48447
lhand 4.74928 37.3562
lfingers 7.12502
lthumb 30.1308 64.9197
rfemur -35.113 0.85334 20.7726
rtibia 29.9116
rfoot -19.9668 -18.5339
rtoes -6.82081
lfemur 1.68396 23.1861 -17.5227
ltibia 42.8277
lfoot -6.46776 6.98773
ltoes -28.4443
1179
root -7.58882 16.3205 3.97011 359.183 -44.4755 -356.93
lowerback 18.2391 -2.76922 -0.323934
upperback 9.3718 -3.93513 1.37219
thorax -0.0259256 -2.14077 2.32278
lowerneck 16.3679 1.09909 1.45772
upperneck -8.96086 2.00713 1.73608
head -5.36521 0.789908 0.128969
rclavicle 3.16068e-014 1.11319e-014
rhumerus -31.6393 14.4499 -87.6902
rradius 120.291
rwrist 14.2071
rhand 11.7808 -15.5102
rfingers 7.12502
rthumb 36.8134 -41.6227
lclavicle 3.16068e-014 1.11319e-014
lhumerus -39.9478 4.73414 83.3371
lradius 128.086
lwrist 8.6809
lhand 4.7686 37.2627
lfingers 7.12502
lthumb 30.1492 64.8229
rfemur -34.8528 1.18602 20.6037
rtibia 29.9847
rfoot -19.7517 -18.4984
rtoes -6.26976
lfemur 1.2599 23.1618 -17.4309
ltibia 43.7274
lfoot -4.80242 6.63449
ltoes -28.2144
1180
root -7.69423 16.3545 4.05085 359.287 -44.4156 -356.835
lowerback 18.1967 -2.86562 -0.246784
upperback 9.27671 -4.04145 1.50736
thorax -0.0962618 -2.19174 2.44137
lowerneck 16.2775 1.03632 1.4544
upperneck -9.17884 1.92625 1.73354
head -5.41929 0.748879 0.135845
rclavicle -1.55052e-014 9.93923e-015
rhumerus -31.7068 14.4602 -87.6519
rradius 120.366
rwrist 14.0835
rhand 11.649 -15.5027
rfingers 7.12502
rthumb 36.6887 -41.647
lclavicle -1.55052e-014 9.93923e-015
lhumerus -40.0159 4.7817 83.2994
lradius 128.009
lwrist 8.87306
lhand 4.71788 37.1739
lfingers 7.12502
lthumb 30.1008 64.7428
rfemur -34.553 1.48228 20.4959
rtibia 29.9884
rfoot -19.4873 -18.5552
rtoes -5.63919
lfemur 0.637546 23.1125 -17.2589
ltibia 44.9239
lfoot -3.08573 6.24614
ltoes -27.6502
1181
root -7.79858 16.3873 4.12948 359.454 -44.318 -356.844
lowerback 18.1858 -2.96834 -0.0797444
upperback 9.19262 -4.14203 1.65431
thorax -0.176135 -2.23741 2.52264
lowerneck 16.1928 0.948152 1.49461
upperneck -9.44832 1.82143 1.72642
head -5.49016 0.694163 0.136374
rclavicle -3.83654e-014 -1.98785e-015
rhumerus -31.7741 14.4306 -87.5954
rradius 120.461
rwrist 13.937
rhand 11.5425 -15.5086
rfingers 7.12502
rthumb 36.5878 -41.6785
lclavicle -3.83654e-014 -1.98785e-015
lhumerus -40.0792 4.80118 83.2404
lradius 127.935
lwrist 9.02394
lhand 4.66384 37.0251
lfingers 7.12502
lthumb 30.0493 64.6034
rfemur -34.2212 1.71894 20.4718
rtibia 29.9353
rfoot -19.1485 -18.6792
rtoes -4.99364
lfemur -0.159752 23.076 -16.9884
ltibia 46.3931
lfoot -1.34712 5.82221
ltoes -26.6865
1182
root -7.90138 16.4177 4.20612 359.682 -44.2067 -356.952
lowerback 18.1972 -3.06158 0.188896
upperback 9.12166 -4.21465 1.80137
thorax -0.261657 -2.2662 2.54336
lowerneck 16.1163 0.82527 1.58985
upperneck -9.76186 1.6839 1.72693
head -5.57607 0.620018 0.13346
rclavicle 1.17283e-014 -2.10712e-014
rhumerus -31.8413 14.3312 -87.5288
rradius 120.574
rwrist 13.8021
rhand 11.4428 -15.5187
rfingers 7.12502
rthumb 36.4935 -41.7124
lclavicle 1.17283e-014 -2.10712e-014
lhumerus -40.113 4.75868 83.1692
lradius 127.86
lwrist 9.11382
lhand 4.56514 36.85
lfingers 7.12502
lthumb 29.9551 64.4454
rfemur -33.8714 1.88526 20.5401
rtibia 29.8379
rfoot -18.7137 -18.8427
rtoes -4.41434
lfemur -1.11309 23.099 -16.6119
ltibia 48.1012
lfoot 0.392881 5.35825
ltoes -25.2801
